<svg width="50" height="36" viewBox="0 0 50 36" fill="none" xmlns="http://www.w3.org/2000/svg">
<path d="M21.2727 14.5455H17.8636V11.1364C17.8636 10.835 17.7439 10.5459 17.5308 10.3328C17.3177 10.1197 17.0287 10 16.7273 10H12.1818C11.8804 10 11.5914 10.1197 11.3783 10.3328C11.1652 10.5459 11.0455 10.835 11.0455 11.1364V14.5455H7.63636C7.33498 14.5455 7.04594 14.6652 6.83283 14.8783C6.61972 15.0914 6.5 15.3804 6.5 15.6818V20.2273C6.5 20.5287 6.61972 20.8177 6.83283 21.0308C7.04594 21.2439 7.33498 21.3636 7.63636 21.3636H11.0455V24.7727C11.0455 25.0741 11.1652 25.3632 11.3783 25.5763C11.5914 25.7894 11.8804 25.9091 12.1818 25.9091H16.7273C17.0287 25.9091 17.3177 25.7894 17.5308 25.5763C17.7439 25.3632 17.8636 25.0741 17.8636 24.7727V21.3636H21.2727C21.5741 21.3636 21.8632 21.2439 22.0763 21.0308C22.2894 20.8177 22.4091 20.5287 22.4091 20.2273V15.6818C22.4091 15.3804 22.2894 15.0914 22.0763 14.8783C21.8632 14.6652 21.5741 14.5455 21.2727 14.5455ZM20.1364 19.0909H16.7273C16.4259 19.0909 16.1369 19.2106 15.9237 19.4237C15.7106 19.6369 15.5909 19.9259 15.5909 20.2273V23.6364H13.3182V20.2273C13.3182 19.9259 13.1985 19.6369 12.9854 19.4237C12.7722 19.2106 12.4832 19.0909 12.1818 19.0909H8.77273V16.8182H12.1818C12.4832 16.8182 12.7722 16.6985 12.9854 16.4854C13.1985 16.2722 13.3182 15.9832 13.3182 15.6818V12.2727H15.5909V15.6818C15.5909 15.9832 15.7106 16.2722 15.9237 16.4854C16.1369 16.6985 16.4259 16.8182 16.7273 16.8182H20.1364V19.0909ZM42.8637 10H28.0909C27.7895 10 27.5005 10.1197 27.2874 10.3328C27.0743 10.5459 26.9546 10.835 26.9546 11.1364C26.9546 11.4377 27.0743 11.7268 27.2874 11.9399C27.5005 12.153 27.7895 12.2727 28.0909 12.2727H42.8637C43.165 12.2727 43.4541 12.153 43.6672 11.9399C43.8803 11.7268 44 11.4377 44 11.1364C44 10.835 43.8803 10.5459 43.6672 10.3328C43.4541 10.1197 43.165 10 42.8637 10ZM42.8637 14.5455H28.0909C27.7895 14.5455 27.5005 14.6652 27.2874 14.8783C27.0743 15.0914 26.9546 15.3804 26.9546 15.6818C26.9546 15.9832 27.0743 16.2722 27.2874 16.4854C27.5005 16.6985 27.7895 16.8182 28.0909 16.8182H42.8637C43.165 16.8182 43.4541 16.6985 43.6672 16.4854C43.8803 16.2722 44 15.9832 44 15.6818C44 15.3804 43.8803 15.0914 43.6672 14.8783C43.4541 14.6652 43.165 14.5455 42.8637 14.5455ZM42.8637 19.0909H28.0909C27.7895 19.0909 27.5005 19.2106 27.2874 19.4237C27.0743 19.6369 26.9546 19.9259 26.9546 20.2273C26.9546 20.5287 27.0743 20.8177 27.2874 21.0308C27.5005 21.2439 27.7895 21.3636 28.0909 21.3636H42.8637C43.165 21.3636 43.4541 21.2439 43.6672 21.0308C43.8803 20.8177 44 20.5287 44 20.2273C44 19.9259 43.8803 19.6369 43.6672 19.4237C43.4541 19.2106 43.165 19.0909 42.8637 19.0909ZM36.0455 23.6364H28.0909C27.7895 23.6364 27.5005 23.7561 27.2874 23.9692C27.0743 24.1823 26.9546 24.4714 26.9546 24.7727C26.9546 25.0741 27.0743 25.3632 27.2874 25.5763C27.5005 25.7894 27.7895 25.9091 28.0909 25.9091H36.0455C36.3469 25.9091 36.6359 25.7894 36.849 25.5763C37.0621 25.3632 37.1818 25.0741 37.1818 24.7727C37.1818 24.4714 37.0621 24.1823 36.849 23.9692C36.6359 23.7561 36.3469 23.6364 36.0455 23.6364Z" fill="#019867"/>
<path d="M46.625 0H3.875C2.9799 0 2.12145 0.354681 1.48852 0.986018C0.85558 1.61736 0.5 2.47363 0.5 3.36648V32.5426C0.5 33.4355 0.85558 34.2917 1.48852 34.9231C2.12145 35.5544 2.9799 35.9091 3.875 35.9091H46.625C47.5201 35.9091 48.3786 35.5544 49.0115 34.9231C49.6444 34.2917 50 33.4355 50 32.5426V3.36648C50 2.47363 49.6444 1.61736 49.0115 0.986018C48.3786 0.354681 47.5201 0 46.625 0ZM47.75 32.5426C47.75 32.8402 47.6315 33.1257 47.4205 33.3361C47.2095 33.5466 46.9234 33.6648 46.625 33.6648H3.875C3.57663 33.6648 3.29048 33.5466 3.07951 33.3361C2.86853 33.1257 2.75 32.8402 2.75 32.5426V3.36648C2.75 3.06886 2.86853 2.78344 3.07951 2.57299C3.29048 2.36255 3.57663 2.24432 3.875 2.24432H46.625C46.9234 2.24432 47.2095 2.36255 47.4205 2.57299C47.6315 2.78344 47.75 3.06886 47.75 3.36648V32.5426Z" fill="#001F15"/>
</svg>
