<svg width="88" height="88" viewBox="0 0 88 88" fill="none" xmlns="http://www.w3.org/2000/svg">
<path d="M81.7806 68.3179L73.6514 60.6685C73.168 60.2169 72.5691 59.9077 71.9209 59.7752C71.2727 59.6428 70.6005 59.6922 69.9786 59.918L66.4337 56.584C68.0558 53.4169 68.8455 49.8892 68.7284 46.3328C68.6458 43.5933 68.0311 40.896 66.9186 38.3912V13.0921C66.9186 11.078 65.2798 9.43924 63.2657 9.43924H59.8852V7.72241C59.8852 5.70671 58.2464 4.06958 56.2324 4.06958H7.39404C5.38 4.06958 3.74121 5.70671 3.74121 7.72241V73.4667C3.74121 75.4808 5.38 77.1195 7.39404 77.1195H10.7762V80.2792C10.7762 82.2933 12.415 83.9321 14.4291 83.9321H63.2674C65.2814 83.9321 66.9202 82.2933 66.9202 80.2792V75.9755L70.9832 79.7977C71.7368 80.5075 72.6229 81.0618 73.5908 81.4288C74.5588 81.7959 75.5896 81.9686 76.6243 81.9369C77.659 81.9053 78.6774 81.6701 79.6211 81.2446C80.5648 80.8191 81.4155 80.2118 82.1243 79.4574C83.554 77.9339 84.321 75.9055 84.2572 73.8172C84.1934 71.729 83.3039 69.7513 81.7839 68.3179H81.7806ZM59.8852 12.7617H63.2657C63.4484 12.7617 63.5978 12.9111 63.5978 13.0937V33.1694C62.5088 31.8943 61.2611 30.7639 59.8852 29.8054V12.7617ZM60.5826 59.1825C54.6318 65.5035 45.1045 66.5048 38.033 62.0018H51.1002C51.5405 62.0018 51.9628 61.8269 52.2742 61.5155C52.5856 61.2041 52.7605 60.7818 52.7605 60.3414C52.7605 59.9011 52.5856 59.4787 52.2742 59.1674C51.9628 58.856 51.5405 58.6811 51.1002 58.6811H34.1626C32.9732 57.3175 32.0004 55.7792 31.2786 54.12H51.1035C51.5438 54.12 51.9662 53.9451 52.2775 53.6337C52.5889 53.3223 52.7639 52.9 52.7639 52.4596C52.7639 52.0193 52.5889 51.5969 52.2775 51.2856C51.9662 50.9742 51.5438 50.7992 51.1035 50.7992H30.2076C29.8802 49.2826 29.7507 47.73 29.8224 46.1801C29.9187 46.1967 30.0067 46.2382 30.108 46.2382H51.1018C51.5422 46.2382 51.9645 46.0633 52.2759 45.7519C52.5873 45.4405 52.7622 45.0182 52.7622 44.5778C52.7622 44.1374 52.5873 43.7151 52.2759 43.4037C51.9645 43.0924 51.5422 42.9174 51.1018 42.9174H30.2757C30.6477 41.3232 31.2389 39.7883 32.0324 38.3564H51.1018C51.5422 38.3564 51.9645 38.1814 52.2759 37.8701C52.5873 37.5587 52.7622 37.1364 52.7622 36.696C52.7622 36.2556 52.5873 35.8333 52.2759 35.5219C51.9645 35.2106 51.5422 35.0356 51.1018 35.0356H34.3984C34.4765 34.9476 34.5445 34.853 34.6259 34.765C36.2906 32.9938 38.3012 31.5833 40.5332 30.6208C42.7652 29.6583 45.1711 29.1644 47.6017 29.1695C63.118 29.1695 71.2588 47.8272 60.5826 59.1825ZM7.39404 73.7988C7.30637 73.7975 7.22265 73.7621 7.16065 73.7001C7.09865 73.6381 7.06325 73.5544 7.06197 73.4667V7.72075C7.06197 7.53977 7.21472 7.38867 7.39404 7.38867H56.2324C56.4117 7.38867 56.5645 7.53977 56.5645 7.72075V27.8462C48.5149 24.0804 38.6158 25.6744 32.2067 32.4886C19.5065 46.0024 29.1981 68.1037 47.5901 68.1037C50.6927 68.0971 53.7561 67.4101 56.5645 66.0913V73.4634C56.5645 73.646 56.4117 73.7971 56.2324 73.7971L7.39404 73.7988ZM63.5978 80.2792C63.5978 80.3673 63.5628 80.4518 63.5006 80.5141C63.4383 80.5763 63.3538 80.6113 63.2657 80.6113H14.4274C14.3393 80.6113 14.2549 80.5763 14.1926 80.5141C14.1303 80.4518 14.0953 80.3673 14.0953 80.2792V77.1195H56.2324C58.2464 77.1195 59.8852 75.4808 59.8852 73.4667V66.6559L61.8777 68.5288C61.7731 68.8857 61.7083 69.256 61.7199 69.6395C61.733 70.1121 61.8399 70.5774 62.0343 71.0084C62.2287 71.4394 62.5067 71.8274 62.8523 72.15L63.5978 72.8507V80.2792ZM61.1056 63.2438C61.1504 63.2072 61.1886 63.1608 61.2334 63.1226C61.8478 62.6045 62.4405 62.0549 63.0034 61.4555C63.5563 60.8694 64.0594 60.2518 64.5359 59.6175C64.5741 59.5677 64.6206 59.5212 64.6571 59.4714L67.4017 62.0516L63.8519 65.8273L61.1056 63.2438ZM79.7018 77.1826C79.2915 77.6188 78.7993 77.9698 78.2533 78.2157C77.7072 78.4616 77.1182 78.5975 76.5196 78.6157C75.9211 78.6339 75.3248 78.534 74.7649 78.3217C74.2049 78.1095 73.6923 77.789 73.2562 77.3786L65.127 69.7309C65.0324 69.6412 65.0274 69.4353 65.1154 69.339L70.9848 63.101C71.035 63.0473 71.1045 63.0157 71.178 63.0132C71.2515 63.0107 71.323 63.0375 71.3767 63.0877L79.5059 70.7371C80.3853 71.5664 80.9 72.7107 80.9371 73.919C80.9741 75.1273 80.5288 76.301 79.7018 77.1826Z" fill="#45534E"/>
<path d="M21.9786 11.3901H13.1604C12.72 11.3901 12.2977 11.5651 11.9863 11.8764C11.6749 12.1878 11.5 12.6102 11.5 13.0505V21.8522C11.5 22.2925 11.6749 22.7149 11.9863 23.0262C12.2977 23.3376 12.72 23.5126 13.1604 23.5126H21.9786C22.419 23.5126 22.8413 23.3376 23.1527 23.0262C23.4641 22.7149 23.639 22.2925 23.639 21.8522V13.0505C23.639 12.6102 23.4641 12.1878 23.1527 11.8764C22.8413 11.5651 22.419 11.3901 21.9786 11.3901ZM20.3183 20.1918H14.8208V14.7109H20.3183V20.1918ZM21.9786 26.8466H13.1604C12.72 26.8466 12.2977 27.0215 11.9863 27.3329C11.6749 27.6443 11.5 28.0666 11.5 28.507V37.3086C11.5 37.749 11.6749 38.1713 11.9863 38.4827C12.2977 38.7941 12.72 38.969 13.1604 38.969H21.9786C22.419 38.969 22.8413 38.7941 23.1527 38.4827C23.4641 38.1713 23.639 37.749 23.639 37.3086V28.5086C23.639 28.0683 23.4641 27.6459 23.1527 27.3346C22.8413 27.0232 22.419 26.8466 21.9786 26.8466ZM20.3183 35.6482H14.8208V30.169H20.3183V35.6482ZM21.9786 42.303H13.1604C12.72 42.303 12.2977 42.478 11.9863 42.7894C11.6749 43.1007 11.5 43.5231 11.5 43.9634V52.7667C11.5 53.2071 11.6749 53.6294 11.9863 53.9408C12.2977 54.2522 12.72 54.4271 13.1604 54.4271H21.9786C22.419 54.4271 22.8413 54.2522 23.1527 53.9408C23.4641 53.6294 23.639 53.2071 23.639 52.7667V43.9634C23.639 43.5231 23.4641 43.1007 23.1527 42.7894C22.8413 42.478 22.419 42.303 21.9786 42.303ZM20.3183 51.1064H14.8208V45.6238H20.3183V51.1064ZM21.9786 57.7595H13.1604C12.72 57.7595 12.2977 57.9344 11.9863 58.2458C11.6749 58.5572 11.5 58.9795 11.5 59.4199V68.2232C11.5 68.6636 11.6749 69.0859 11.9863 69.3973C12.2977 69.7086 12.72 69.8836 13.1604 69.8836H21.9786C22.419 69.8836 22.8413 69.7086 23.1527 69.3973C23.4641 69.0859 23.639 68.6636 23.639 68.2232V59.4199C23.639 58.9795 23.4641 58.5572 23.1527 58.2458C22.8413 57.9344 22.419 57.7595 21.9786 57.7595ZM20.3183 66.5628H14.8208V61.0803H20.3183V66.5628ZM30.1078 14.7109H51.1017C51.542 14.7109 51.9643 14.536 52.2757 14.2246C52.5871 13.9132 52.762 13.4909 52.762 13.0505C52.762 12.6102 52.5871 12.1878 52.2757 11.8764C51.9643 11.5651 51.542 11.3901 51.1017 11.3901H30.1078C29.6675 11.3901 29.2452 11.5651 28.9338 11.8764C28.6224 12.1878 28.4475 12.6102 28.4475 13.0505C28.4475 13.4909 28.6224 13.9132 28.9338 14.2246C29.2452 14.536 29.6675 14.7109 30.1078 14.7109ZM30.1078 22.591H51.1017C51.542 22.591 51.9643 22.4161 52.2757 22.1047C52.5871 21.7933 52.762 21.371 52.762 20.9307C52.762 20.4903 52.5871 20.068 52.2757 19.7566C51.9643 19.4452 51.542 19.2703 51.1017 19.2703H30.1078C29.6675 19.2703 29.2452 19.4452 28.9338 19.7566C28.6224 20.068 28.4475 20.4903 28.4475 20.9307C28.4475 21.371 28.6224 21.7933 28.9338 22.1047C29.2452 22.4161 29.6675 22.591 30.1078 22.591Z" fill="#019867"/>
</svg>
