<svg width="37" height="29" viewBox="0 0 37 29" fill="none" xmlns="http://www.w3.org/2000/svg">
<g clip-path="url(#clip0_184_2772)">
<path d="M30.1004 28.5C28.1291 28.4637 26.6127 27.4838 25.229 26.3043C22.5185 23.9997 20.5282 21.1507 18.4242 18.3562C15.998 15.1442 13.3822 12.0775 10.103 9.60956C9.0036 8.79297 7.79048 8.08526 6.36886 7.83121C4.79561 7.55901 3.43085 7.94008 2.19878 8.8837C1.78177 9.21034 1.34581 9.51883 0.890893 9.79102C0.682389 9.91805 0.417021 9.95434 0.208517 9.79102C1.24171e-05 9.62771 -0.0378974 9.3918 0.0379223 9.1559C0.132697 8.82926 0.227471 8.50262 0.473885 8.24857C2.14192 6.54281 4.01845 5.14553 6.55841 4.85518C8.416 4.63743 10.103 5.10923 11.6952 5.94397C14.5005 7.43198 16.6235 9.60956 18.5569 12.0049C20.9831 14.9809 23.0302 18.2291 25.6271 21.06C26.8591 22.4028 28.1481 23.6731 29.7592 24.6348C31.8064 25.8325 34.0051 25.7055 35.8438 24.2356C36.147 23.9997 36.5072 23.4553 36.8863 23.8727C37.2085 24.2356 36.7346 24.6167 36.4124 24.8889C35.2562 25.8688 34.1757 26.9031 32.8299 27.6834C31.9959 28.1915 31.105 28.5182 30.1004 28.5Z" fill="#9A9A3A"/>
<path d="M26.6695 5.94388C26.4989 3.56669 28.0722 2.40532 30.0435 1.53429C30.9534 1.13507 31.8821 0.808429 32.8488 0.536232C33.2659 0.427354 33.3796 0.536232 33.3796 0.917308C33.3606 2.5142 33.2279 4.11109 32.6782 5.63539C32.0148 7.43189 30.4605 8.08516 28.6598 8.30292C26.897 8.50253 27.0297 8.70214 26.7264 6.86935C26.6885 6.57901 26.6885 6.25237 26.6695 5.94388Z" fill="#159F72"/>
<path d="M29.3422 9.71842C31.0671 9.88173 32.6783 10.8435 34.2136 11.8778C34.498 12.0775 34.3084 12.2226 34.1378 12.3497C32.7541 13.384 31.3514 14.3821 29.6455 14.9083C27.9964 15.4164 25.3238 14.2913 24.6793 12.8215C24.6224 12.6944 24.6224 12.5856 24.6793 12.4585C25.1721 11.2972 27.731 9.70027 29.3422 9.71842Z" fill="#159F72"/>
<path d="M25.3048 7.75865C25.2669 9.35553 24.4708 10.4988 23.6747 11.642C23.5041 11.896 23.2767 11.8416 23.0302 11.7327C20.1112 10.4262 19.3151 9.04704 19.9406 6.37951C20.206 5.27258 20.5851 4.20194 21.021 3.1313C21.1727 2.75022 21.3433 2.60505 21.7224 2.89539C22.9165 3.83901 24.0349 4.83706 24.8499 6.12546C25.1532 6.688 25.3238 7.28684 25.3048 7.75865Z" fill="#159F72"/>
<path d="M23.4473 14.8901C25.5512 15.0172 27.1056 15.9971 28.6409 17.0133C28.9631 17.231 28.8684 17.4306 28.603 17.6121C27.7121 18.2835 26.7833 18.9187 25.7977 19.4449C25.4186 19.6445 25.2101 19.5175 24.9826 19.2271C24.1107 18.0839 23.2198 16.9407 22.3289 15.8156C21.9877 15.3801 22.0256 15.1442 22.6132 15.0353C22.9544 14.9809 23.2767 14.9264 23.4473 14.8901Z" fill="#159F72"/>
<path d="M21.7792 14.8901C21.1158 14.2913 20.7936 13.6198 20.3197 13.0754C19.5046 12.0955 18.6896 11.0793 17.8556 10.0994C17.6091 9.80908 17.4385 9.50059 17.7418 9.21025C18.0451 8.93805 18.2726 9.30098 18.4621 9.4643C19.4857 10.2627 20.4524 11.1338 21.1727 12.2044C21.7224 12.9847 22.0256 13.8013 21.7792 14.8901Z" fill="#159F72"/>
</g>
<defs>
<clipPath id="clip0_184_2772">
<rect width="37" height="28" fill="white" transform="translate(0 0.5)"/>
</clipPath>
</defs>
</svg>
