<svg width="34" height="32" viewBox="0 0 34 32" fill="none" xmlns="http://www.w3.org/2000/svg">
<path d="M2.17904 17.205H2.9262V10.3575C2.92818 9.85683 3.12866 9.37735 3.48367 9.02425C3.83868 8.67115 4.31923 8.47326 4.81994 8.47399H4.82809V5.75701C4.82809 4.8441 5.55285 4.10169 6.45964 4.05414V1.7155C6.46126 1.29929 6.62796 0.900729 6.92316 0.607316C7.21836 0.313902 7.61792 0.149614 8.03413 0.150516H11.2157C11.7387 0.150516 12.2278 0.409309 12.5267 0.851498L13.5326 2.3798C13.5519 2.40903 13.578 2.43315 13.6086 2.45007C13.6392 2.46699 13.6735 2.47621 13.7085 2.47693H25.9757C26.3908 2.47747 26.7887 2.6426 27.0822 2.9361C27.3757 3.2296 27.5408 3.62752 27.5414 4.04259V6.76501C27.9803 6.78525 28.3945 6.9736 28.6983 7.29101C29.002 7.60843 29.172 8.03057 29.1729 8.46991V11.6352H29.1919C30.4105 11.6352 31.0755 13.3272 31.0755 14.1973V17.205H31.8227C32.6384 17.205 33.3027 17.8693 33.3027 18.6858V30.3688C33.3027 31.1852 32.6384 31.8495 31.822 31.8495H2.17972C1.36326 31.8495 0.698959 31.1852 0.698959 30.3688V18.6858C0.698959 17.8693 1.36258 17.205 2.17904 17.205ZM26.1822 4.04259C26.1822 3.92712 26.0912 3.83542 25.975 3.83542H13.7079C13.1855 3.83542 12.6836 3.56304 12.3969 3.12561L11.3964 1.60682C11.3556 1.54569 11.2877 1.50969 11.215 1.50969H8.03345C7.91526 1.50969 7.81813 1.60206 7.81813 1.71618V4.04531H10.2573C10.8306 4.04531 11.3645 4.32923 11.6919 4.81218L12.8636 6.59248C12.8966 6.64192 12.9411 6.68264 12.9932 6.71114C13.0454 6.73965 13.1037 6.7551 13.1631 6.75618H26.1822V4.04259ZM27.8138 11.6332V8.46923C27.8138 8.27429 27.6555 8.11603 27.4605 8.11603H13.1624C12.5919 8.11603 12.0417 7.81716 11.7279 7.33965L10.5609 5.56682C10.5275 5.51676 10.4822 5.4757 10.4291 5.44727C10.3761 5.41884 10.3168 5.40391 10.2566 5.4038H6.54862C6.34824 5.4038 6.1859 5.56206 6.1859 5.75701V8.47399H9.14062C9.77164 8.47399 10.3599 8.78644 10.7192 9.31761L12.0845 11.3927C12.1328 11.4662 12.1985 11.5267 12.2757 11.5689C12.3529 11.6111 12.4394 11.6336 12.5273 11.6345L27.8131 11.6332H27.8138ZM29.7156 14.1973C29.7156 13.7395 29.3488 13.0616 29.1913 12.993H12.528C12.2152 12.9909 11.9077 12.9119 11.6325 12.763C11.3574 12.6142 11.123 12.3999 10.9501 12.1392L9.59028 10.0716C9.54082 9.99808 9.47408 9.93785 9.39592 9.89617C9.31776 9.85448 9.23056 9.83261 9.14198 9.83248H4.81994C4.52447 9.83248 4.2847 10.0682 4.2847 10.3575V17.205H29.7156V14.1973ZM2.05677 30.3695C2.05677 30.4353 2.11315 30.4917 2.17904 30.4917H31.8213C31.8536 30.4914 31.8845 30.4784 31.9074 30.4555C31.9302 30.4327 31.9432 30.4018 31.9436 30.3695V18.6864C31.9436 18.6199 31.8872 18.5642 31.8213 18.5642H2.17904C2.11315 18.5642 2.05677 18.6199 2.05677 18.6864V30.3695Z" fill="#019867"/>
<path d="M12.8292 22.2932H21.1704C21.3505 22.2932 21.5233 22.3648 21.6507 22.4922C21.778 22.6195 21.8496 22.7923 21.8496 22.9725V26.0834C21.8496 26.2636 21.778 26.4363 21.6507 26.5637C21.5233 26.6911 21.3505 26.7626 21.1704 26.7626H12.8292C12.6491 26.7626 12.4763 26.6911 12.3489 26.5637C12.2215 26.4363 12.15 26.2636 12.15 26.0834V22.9725C12.15 22.7923 12.2215 22.6195 12.3489 22.4922C12.4763 22.3648 12.6491 22.2932 12.8292 22.2932ZM13.5085 25.4042H20.4911V23.6517H13.5085V25.4042Z" fill="#869791"/>
</svg>
