<svg width="88" height="88" viewBox="0 0 88 88" fill="none" xmlns="http://www.w3.org/2000/svg">
<path d="M1.77434 40.28V80.6755C1.77434 84.7202 5.06363 88.0095 9.10832 88.0095H49.9366C53.9812 88.0095 57.2705 84.7202 57.2705 80.6755V68.7138H67.5858C72.6407 68.7138 76.7532 64.6013 76.7532 59.5464V40.8411C83.0971 39.9427 87.9999 34.4935 87.9999 27.9058C87.9999 20.6928 82.1327 14.8256 74.9197 14.8256C67.7068 14.8256 61.8396 20.6928 61.8396 27.9058C61.8396 34.4935 66.7424 39.9445 73.0862 40.8411V59.5482C73.0862 62.5808 70.6202 65.0487 67.5858 65.0487H57.2705V29.2241C57.7413 29.2065 58.187 29.0076 58.5143 28.669C58.8417 28.3303 59.0254 27.8781 59.027 27.4071V22.0111C59.0254 21.54 58.8417 21.0879 58.5143 20.7492C58.187 20.4105 57.7413 20.2116 57.2705 20.1941V7.33397C57.2705 3.28929 53.9812 0 49.9366 0H9.10832C5.06363 0 1.77434 3.28929 1.77434 7.33397V18.3056C1.29847 18.3175 0.846018 18.5146 0.513205 18.855C0.180392 19.1953 -0.00652976 19.6521 -0.0078125 20.1281V25.5241C-0.0078125 26.5178 0.78609 27.3172 1.77434 27.3466V31.2391C1.29847 31.251 0.846018 31.4481 0.513205 31.7884C0.180392 32.1288 -0.00652976 32.5855 -0.0078125 33.0616V38.4557C-0.0078125 39.4513 0.78609 40.2507 1.77434 40.28ZM65.5066 27.9039C65.51 25.4086 66.5029 23.0165 68.2675 21.2522C70.0321 19.4879 72.4244 18.4955 74.9197 18.4926C80.1104 18.4926 84.3329 22.7151 84.3329 27.9058C84.3329 33.0964 80.1104 37.3171 74.9197 37.3171C72.4244 37.3142 70.0321 36.3218 68.2675 34.5575C66.5029 32.7932 65.51 30.3993 65.5066 27.9039ZM53.6035 80.6719C53.6035 82.6961 51.9589 84.3389 49.9366 84.3389H9.10832C7.08597 84.3389 5.44133 82.6961 5.44133 80.6719V76.4952H53.6035V80.6719ZM31.3578 54.4694C33.6102 54.2344 35.7938 53.5557 37.7826 52.4725C39.7714 51.3894 41.5261 49.9232 42.9454 48.1585L44.8944 45.7457C47.368 42.6754 48.7186 38.8524 48.7228 34.9097V28.9215C48.7228 25.8889 46.2549 23.421 43.2223 23.421H42.8428C42.4667 22.3509 41.7684 21.4234 40.8439 20.7661C39.9194 20.1089 38.814 19.754 37.6796 19.7504C34.6452 19.7504 32.1792 22.2164 32.1792 25.2509C32.1792 28.2945 34.6452 30.7697 37.6796 30.7697C40.0669 30.7697 42.0837 29.2259 42.8428 27.088H43.2223C44.2344 27.088 45.0558 27.9113 45.0558 28.9215V34.9097C45.0523 38.0138 43.9889 41.0237 42.0415 43.441L40.0925 45.8557C34.6544 52.5956 24.3868 52.5791 18.9578 45.8557L17.0107 43.441C15.0625 41.0241 13.999 38.014 13.9964 34.9097V28.9215C13.9964 27.9113 14.8178 27.088 15.8299 27.088H16.2021C16.9612 29.2259 18.978 30.7715 21.3652 30.7715C24.3997 30.7715 26.8657 28.2945 26.8657 25.2509C26.8657 22.2164 24.3997 19.7504 21.3652 19.7504C18.9762 19.7504 16.9593 21.2905 16.2021 23.421H15.8299C12.7955 23.421 10.3294 25.8889 10.3294 28.9215V34.9097C10.3327 38.8526 11.6834 42.6758 14.1578 45.7457L16.1031 48.1585C17.5229 49.9228 19.2777 51.3886 21.2664 52.4717C23.2551 53.5548 25.4385 54.2338 27.6908 54.4694V59.5482C27.6908 64.605 31.8051 68.7157 36.8582 68.7157H53.6035V72.83H5.44133V15.1832H53.6035V65.0487H36.8582C33.8256 65.0487 31.3578 62.5808 31.3578 59.5482V54.4694ZM39.5131 25.2509C39.5131 26.2721 38.6899 27.1027 37.6796 27.1027C36.6694 27.1027 35.8462 26.2721 35.8462 25.2509C35.8462 24.7646 36.0393 24.2982 36.3832 23.9544C36.727 23.6105 37.1934 23.4174 37.6796 23.4174C38.1659 23.4174 38.6323 23.6105 38.9761 23.9544C39.32 24.2982 39.5131 24.7646 39.5131 25.2509ZM19.5317 25.2509C19.5317 24.7646 19.7249 24.2982 20.0687 23.9544C20.4126 23.6105 20.8789 23.4174 21.3652 23.4174C21.8515 23.4174 22.3179 23.6105 22.6617 23.9544C23.0055 24.2982 23.1987 24.7646 23.1987 25.2509C23.1987 26.2721 22.3773 27.1027 21.3652 27.1027C20.3531 27.1027 19.5317 26.2721 19.5317 25.2509ZM5.44133 7.33397C5.44133 5.31163 7.08597 3.66699 9.10832 3.66699H49.9366C51.9589 3.66699 53.6035 5.31163 53.6035 7.33397V11.5162H5.44133V7.33397Z" fill="#45534E"/>
<path d="M32.9822 5.75928H26.0644C25.5782 5.75928 25.1118 5.95245 24.768 6.2963C24.4241 6.64014 24.231 7.1065 24.231 7.59277C24.231 8.07904 24.4241 8.5454 24.768 8.88925C25.1118 9.23309 25.5782 9.42626 26.0644 9.42626H32.9841C33.4703 9.42626 33.9367 9.23309 34.2805 8.88925C34.6244 8.5454 34.8175 8.07904 34.8175 7.59277C34.8175 7.1065 34.6244 6.64014 34.2805 6.2963C33.9367 5.95245 33.4685 5.75928 32.9822 5.75928ZM28.4242 82.2526H30.6207C31.107 82.2526 31.5733 82.0595 31.9172 81.7156C32.261 81.3718 32.4542 80.9054 32.4542 80.4191C32.4542 79.9329 32.261 79.4665 31.9172 79.1227C31.5733 78.7788 31.107 78.5856 30.6207 78.5856H28.4242C27.9379 78.5856 27.4715 78.7788 27.1277 79.1227C26.7838 79.4665 26.5907 79.9329 26.5907 80.4191C26.5907 80.9054 26.7838 81.3718 27.1277 81.7156C27.4715 82.0595 27.9379 82.2526 28.4242 82.2526ZM80.6641 27.906C80.6641 24.7378 78.088 22.1599 74.9197 22.1599C71.7514 22.1599 69.1735 24.7378 69.1735 27.906C69.1735 31.0743 71.7533 33.6504 74.9197 33.6504C78.0862 33.6504 80.6659 31.0743 80.6659 27.9079L80.6641 27.906ZM72.8405 27.906C72.8405 26.7601 73.7756 25.8269 74.9197 25.8269C75.4524 25.8543 75.9543 26.0852 76.3216 26.4719C76.689 26.8587 76.8938 27.3717 76.8938 27.9051C76.8938 28.4385 76.689 28.9516 76.3216 29.3383C75.9543 29.7251 75.4524 29.956 74.9197 29.9834C74.3688 29.9829 73.8405 29.764 73.4507 29.3745C73.0609 28.9851 72.8415 28.457 72.8405 27.906Z" fill="#019867"/>
</svg>
