<svg width="24" height="22" viewBox="0 0 24 22" fill="none" xmlns="http://www.w3.org/2000/svg">
<path d="M23.9837 1.04594C24.1007 0.501308 23.5667 0.0420779 23.0459 0.240826L0.452326 8.86574C0.319493 8.91646 0.205157 9.00625 0.124404 9.12328C0.0436507 9.24031 0.000275463 9.37907 1.30767e-06 9.52126C-0.000272848 9.66344 0.0425669 9.80237 0.122868 9.91971C0.203169 10.037 0.317158 10.1273 0.449795 10.1785L6.79675 12.6298V20.3507C6.79674 20.5089 6.85008 20.6625 6.94817 20.7866C7.04625 20.9107 7.18334 20.9982 7.33726 21.0348C7.49118 21.0714 7.65295 21.055 7.7964 20.9882C7.93986 20.9215 8.05661 20.8084 8.1278 20.6671L10.7528 15.458L17.1589 20.2121C17.5485 20.5014 18.1087 20.3174 18.2504 19.8527C24.2316 0.242373 23.973 1.09521 23.9837 1.04594ZM18.4065 3.51708L7.40021 11.3554L2.66457 9.52644L18.4065 3.51708ZM8.20298 12.51L17.7967 5.67776C9.54144 14.3866 9.97259 13.9282 9.93659 13.9767C9.88311 14.0486 10.0296 13.7682 8.20298 17.393V12.51ZM17.1962 18.4887L11.5574 14.3039L21.7531 3.54801L17.1962 18.4887Z" fill="#019867"/>
</svg>
