<svg width="24" height="25" viewBox="0 0 24 25" fill="none" xmlns="http://www.w3.org/2000/svg">
<path d="M22.6725 7.16227L23.7363 6.09844C24.1772 5.65735 23.865 4.89872 23.2394 4.89872H19.7252V1.38474C19.7252 0.758534 18.9662 0.446909 18.5255 0.887815L17.4617 1.95164C9.53925 -2.10834 0 3.62142 0 12.6294C0 19.2586 5.36461 24.6238 11.9945 24.6238C21.0077 24.6238 26.7303 15.0805 22.6725 7.16227ZM18.7315 9.11546H16.5024L19.3136 6.30427H21.5425L18.7315 9.11546ZM11.9945 18.9598C8.50378 18.9598 5.664 16.12 5.664 12.6294C5.664 8.26899 9.99684 5.20524 14.103 6.65874V9.52706L13.9308 9.699C11.6014 8.15452 8.48053 9.83836 8.48053 12.6294C8.48053 14.5671 10.0569 16.1434 11.9945 16.1434C14.7896 16.1434 16.4669 13.0185 14.9249 10.6929L15.0968 10.521H17.9652C19.4204 14.6315 16.3502 18.9598 11.9945 18.9598ZM11.9945 14.7377C10.832 14.7377 9.88608 13.792 9.88608 12.6294C9.88608 11.0816 11.5089 10.0586 12.9031 10.727L11.4975 12.1325C11.223 12.407 11.223 12.8519 11.4975 13.1264C11.772 13.4009 12.2169 13.4009 12.4914 13.1264L13.8969 11.7209C14.566 13.1167 13.5405 14.7377 11.9945 14.7377ZM18.3197 5.31033L15.5085 8.12156V5.89242L18.3197 3.08124V5.31033ZM11.9945 23.2181C6.15581 23.2181 1.40569 18.4681 1.40569 12.6295C1.40569 4.94306 9.39694 -0.21267 16.4101 3.00324C14.107 5.30635 14.2742 5.13056 14.2174 5.21771C9.25875 3.72886 4.2585 7.4647 4.2585 12.6294C4.2585 16.895 7.72889 20.3654 11.9945 20.3654C17.1513 20.3654 20.8976 15.3732 19.4064 10.4065C19.4956 10.3483 19.333 10.5015 21.6208 8.21381C24.839 15.2319 19.6763 23.218 11.9945 23.218V23.2181Z" fill="#019867"/>
</svg>
