<svg width="24" height="24" viewBox="0 0 24 24" fill="none" xmlns="http://www.w3.org/2000/svg">
<path d="M23.3866 14.5052C23.1654 14.1359 22.2576 13.0393 19.8606 14.4352L15.6347 16.8966C15.4228 17.02 15.2074 17.1071 14.9825 17.1591C15.0658 17.0255 15.1311 16.8743 15.1759 16.707C15.3919 15.9007 14.9127 15.0589 14.0849 14.7905C14.0688 14.7853 14.0524 14.7812 14.0358 14.7782C12.8212 14.5591 11.6224 14.1257 10.6592 13.7775C10.3246 13.6565 10.0086 13.5423 9.73982 13.4551C8.65799 13.1042 7.6798 13.5386 6.86577 14.01L3.72168 15.8303L3.42524 15.3065C3.29436 15.0753 3.08071 14.9087 2.82355 14.8374C2.5664 14.7661 2.29738 14.7989 2.06624 14.9298L0.880537 15.6009C0.649255 15.7318 0.482662 15.9455 0.411365 16.2026C0.340068 16.4598 0.372927 16.7288 0.503802 16.9599L3.98976 23.1194C4.12058 23.3506 4.33429 23.5172 4.59144 23.5885C4.68037 23.6131 4.77069 23.6253 4.86041 23.6253C5.0301 23.6253 5.19749 23.5817 5.34876 23.4961L6.53451 22.825C6.76574 22.6942 6.93229 22.4805 7.00358 22.2233C7.07488 21.9662 7.04202 21.6972 6.91115 21.466L6.55176 20.831L7.26847 20.4172L12.6811 21.8675C12.9868 21.9495 13.2869 21.9904 13.5805 21.9904C14.1659 21.9904 14.7255 21.8278 15.2521 21.5035L22.9214 16.7812C23.6204 16.3507 23.8422 15.2659 23.3866 14.5052ZM6.28087 22.023C6.27239 22.0543 6.2578 22.0836 6.23793 22.1092C6.21805 22.1349 6.19329 22.1563 6.16508 22.1723L4.97933 22.8434C4.86285 22.9094 4.70849 22.8667 4.6424 22.75L1.15649 16.5906C1.14055 16.5623 1.13037 16.5312 1.12653 16.499C1.12269 16.4668 1.12528 16.4342 1.13413 16.403C1.14259 16.3717 1.15718 16.3423 1.17706 16.3167C1.19693 16.2911 1.2217 16.2697 1.24991 16.2537L2.43562 15.5826C2.47223 15.5618 2.51361 15.5509 2.55571 15.551C2.57816 15.551 2.60085 15.554 2.62321 15.5602C2.65451 15.5687 2.68382 15.5833 2.70944 15.6032C2.73507 15.623 2.7565 15.6478 2.77251 15.676H2.77255L6.25851 21.8355C6.27444 21.8637 6.28463 21.8948 6.28846 21.927C6.2923 21.9592 6.28972 21.9918 6.28087 22.023ZM22.5281 16.1425L14.8589 20.8649C14.2508 21.2393 13.5833 21.3329 12.8753 21.1431L7.31258 19.6525C7.21652 19.6268 7.1142 19.6403 7.02805 19.69L6.18238 20.1782L4.0911 16.4831L7.24157 14.6591C7.94629 14.251 8.70885 13.9091 9.5084 14.1686C9.76527 14.2519 10.0614 14.3589 10.4042 14.4829C11.387 14.8382 12.6083 15.2797 13.8756 15.5114C14.3172 15.6657 14.5641 16.0923 14.4515 16.5129C14.3032 17.0663 13.8423 17.1352 13.4754 17.093C12.8529 16.965 12.2613 16.7962 11.6354 16.6175C11.3386 16.5327 11.0317 16.4451 10.7163 16.3605C10.6687 16.3478 10.6191 16.3445 10.5703 16.351C10.5214 16.3574 10.4744 16.3734 10.4317 16.398C10.3891 16.4226 10.3517 16.4554 10.3217 16.4945C10.2917 16.5336 10.2697 16.5782 10.257 16.6257C10.2442 16.6733 10.241 16.7229 10.2474 16.7717C10.2538 16.8205 10.2698 16.8676 10.2945 16.9103C10.3191 16.9529 10.3519 16.9903 10.3909 17.0203C10.43 17.0503 10.4746 17.0723 10.5222 17.085C10.8317 17.1679 11.1356 17.2547 11.4294 17.3386C12.0745 17.5229 12.6838 17.6969 13.3399 17.831C13.3424 17.8315 13.3448 17.8317 13.3474 17.8321C13.3499 17.8325 13.3522 17.8333 13.3548 17.8337L13.8803 17.9191C14.6662 18.0449 15.3636 17.9224 16.0121 17.5448L20.2381 15.0833C21.4546 14.3748 22.3911 14.3027 22.7432 14.8906C22.9858 15.2957 22.8773 15.9275 22.5281 16.1425ZM2.77963 16.7722C2.78767 16.8272 2.7848 16.8833 2.77118 16.9372C2.75756 16.9911 2.73345 17.0418 2.70024 17.0863C2.66703 17.1309 2.62536 17.1685 2.57762 17.197C2.52987 17.2255 2.47698 17.2443 2.42197 17.2523C2.36696 17.2604 2.31091 17.2575 2.25701 17.2439C2.20311 17.2303 2.15242 17.2062 2.10783 17.173C2.06325 17.1397 2.02564 17.0981 1.99716 17.0503C1.96867 17.0026 1.94988 16.9497 1.94183 16.8947C1.92687 16.7842 1.9561 16.6722 2.02318 16.5832C2.09027 16.4941 2.18979 16.4351 2.30013 16.4189C2.41047 16.4028 2.52272 16.4309 2.6125 16.497C2.70228 16.5631 2.76234 16.662 2.77963 16.7722ZM15.9599 14.8817C15.9951 14.9244 16.0393 14.9587 16.0893 14.9823C16.1393 15.0058 16.1939 15.018 16.2491 15.018C16.3044 15.018 16.359 15.0058 16.409 14.9823C16.459 14.9587 16.5032 14.9244 16.5384 14.8817L21.8316 8.46712C21.8794 8.40919 21.9087 8.33823 21.9157 8.26345C21.9227 8.18867 21.9071 8.1135 21.8709 8.04769L20.1065 4.84041C20.0741 4.78158 20.0265 4.73252 19.9687 4.69835C19.9109 4.66418 19.845 4.64616 19.7779 4.64616H12.7205C12.6533 4.64616 12.5874 4.66418 12.5296 4.69835C12.4718 4.73252 12.4242 4.78158 12.3919 4.84041L10.6275 8.04769C10.5913 8.1135 10.5757 8.18867 10.5827 8.26345C10.5897 8.33823 10.619 8.40919 10.6668 8.46712L15.9599 14.8817ZM18.2993 8.60348H20.7467L17.0757 13.0522L18.2993 8.60348ZM16.2492 13.229L14.9769 8.60344H17.5214L16.2492 13.229ZM15.1191 7.85348L16.2492 5.79919L17.3792 7.85348H15.1191ZM16.8835 5.39616H19.1436L18.0135 7.45045L16.8835 5.39616ZM14.4848 7.45045L13.3548 5.39616H15.6149L14.4848 7.45045ZM13.8505 7.85348H11.5904L12.7205 5.79923L13.8505 7.85348ZM14.199 8.60348L15.4227 13.0522L11.7517 8.60348H14.199ZM20.908 7.85348H18.6479L19.7779 5.79919L20.908 7.85348ZM15.8742 2.21939V0.75C15.8742 0.650544 15.9137 0.555161 15.984 0.484835C16.0543 0.414509 16.1497 0.375 16.2492 0.375C16.3486 0.375 16.444 0.414509 16.5143 0.484835C16.5847 0.555161 16.6242 0.650544 16.6242 0.75V2.21939C16.6242 2.31885 16.5847 2.41423 16.5143 2.48456C16.444 2.55488 16.3486 2.59439 16.2492 2.59439C16.1497 2.59439 16.0543 2.55488 15.984 2.48456C15.9137 2.41423 15.8742 2.31885 15.8742 2.21939ZM12.1852 1.93945C12.1355 1.85332 12.122 1.75097 12.1478 1.6549C12.1735 1.55884 12.2364 1.47693 12.3225 1.4272C12.4086 1.37749 12.511 1.36402 12.607 1.38976C12.7031 1.4155 12.785 1.47834 12.8347 1.56445L13.5694 2.83697C13.6023 2.89395 13.6197 2.95859 13.6197 3.02439C13.6197 3.09019 13.6024 3.15483 13.5695 3.21184C13.5367 3.26884 13.4894 3.31619 13.4324 3.34913C13.3755 3.38208 13.3108 3.39945 13.245 3.39952C13.1791 3.39959 13.1144 3.38229 13.0573 3.34937C13.0002 3.31644 12.9528 3.26905 12.9199 3.21197L12.1852 1.93945ZM18.929 2.83692L19.6637 1.56441C19.6883 1.52175 19.7211 1.48435 19.7601 1.45437C19.7992 1.42438 19.8438 1.40238 19.8914 1.38964C19.9389 1.37689 19.9886 1.37364 20.0374 1.38008C20.0862 1.38652 20.1333 1.40252 20.1759 1.42716C20.2621 1.47689 20.3249 1.55879 20.3506 1.65486C20.3764 1.75092 20.3629 1.85328 20.3132 1.93941L19.5785 3.21192C19.5539 3.25458 19.5211 3.29197 19.4821 3.32196C19.443 3.35195 19.3984 3.37394 19.3508 3.38669C19.3032 3.39944 19.2536 3.40268 19.2048 3.39625C19.156 3.38981 19.1089 3.37381 19.0663 3.34917C19.0236 3.32455 18.9862 3.29177 18.9562 3.2527C18.9263 3.21364 18.9043 3.16904 18.8915 3.12148C18.8788 3.07391 18.8755 3.0243 18.882 2.97547C18.8884 2.92665 18.9044 2.87957 18.929 2.83692Z" fill="#019867"/>
</svg>
