<svg width="25" height="30" viewBox="0 0 25 30" fill="none" xmlns="http://www.w3.org/2000/svg">
<path d="M13.6667 1.6665H17.2667C19.5069 1.6665 20.627 1.6665 21.4826 2.10248C22.2353 2.48597 22.8472 3.09789 23.2307 3.85054C23.6667 4.70619 23.6667 5.82629 23.6667 8.0665V21.9332C23.6667 24.1734 23.6667 25.2935 23.2307 26.1491C22.8472 26.9018 22.2353 27.5137 21.4826 27.8972C20.627 28.3332 19.5069 28.3332 17.2667 28.3332H8.73333C6.49312 28.3332 5.37302 28.3332 4.51737 27.8972C3.76472 27.5137 3.1528 26.9018 2.76931 26.1491C2.33333 25.2935 2.33333 24.1734 2.33333 21.9332V20.9998M18.3333 16.3332H12.3333M18.3333 10.9998H13.6667M18.3333 21.6665H7.66667M5 12.3332V4.99984C5 3.89527 5.89543 2.99984 7 2.99984C8.10457 2.99984 9 3.89527 9 4.99984V12.3332C9 14.5423 7.20914 16.3332 5 16.3332C2.79086 16.3332 1 14.5423 1 12.3332V6.99984" stroke="#9A9A3A" stroke-width="2" stroke-linecap="round" stroke-linejoin="round"/>
</svg>
