<svg width="33" height="32" viewBox="0 0 33 32" fill="none" xmlns="http://www.w3.org/2000/svg">
<g clip-path="url(#clip0_4049_7943)">
<path d="M5.1875 26.375C6.7408 26.375 8 25.1158 8 23.5625C8 22.0092 6.7408 20.75 5.1875 20.75C3.6342 20.75 2.375 22.0092 2.375 23.5625C2.375 25.1158 3.6342 26.375 5.1875 26.375Z" fill="white"/>
<path d="M7.97262 27.3115C7.19169 27.8936 6.23406 28.2504 5.1875 28.2504C4.14094 28.2504 3.18331 27.8936 2.40237 27.3115C1.25394 28.166 0.5 29.5215 0.5 31.0629C0.5 31.5806 0.91975 32.0004 1.4375 32.0004H8.9375C9.45525 32.0004 9.875 31.5806 9.875 31.0629C9.875 29.5215 9.12106 28.166 7.97262 27.3115Z" fill="white"/>
<path d="M27.8125 26.375C29.3658 26.375 30.625 25.1158 30.625 23.5625C30.625 22.0092 29.3658 20.75 27.8125 20.75C26.2592 20.75 25 22.0092 25 23.5625C25 25.1158 26.2592 26.375 27.8125 26.375Z" fill="white"/>
<path d="M30.5976 27.3115C29.8167 27.8936 28.8591 28.2504 27.8125 28.2504C26.7659 28.2504 25.8083 27.8936 25.0274 27.3115C23.8789 28.166 23.125 29.5215 23.125 31.0629C23.125 31.5806 23.5447 32.0004 24.0625 32.0004H31.5625C32.0802 32.0004 32.5 31.5806 32.5 31.0629C32.5 29.5215 31.7461 28.166 30.5976 27.3115Z" fill="white"/>
<path d="M16.5 5.625C18.0533 5.625 19.3125 4.3658 19.3125 2.8125C19.3125 1.2592 18.0533 0 16.5 0C14.9467 0 13.6875 1.2592 13.6875 2.8125C13.6875 4.3658 14.9467 5.625 16.5 5.625Z" fill="white"/>
<path d="M19.2883 6.56152C18.5074 7.14359 17.5497 7.5004 16.5032 7.5004C15.4566 7.5004 14.499 7.14359 13.7181 6.56152C12.5696 7.41596 11.8157 8.77152 11.8157 10.3129C11.8157 10.8306 12.2354 11.2504 12.7532 11.2504H20.2532C20.7709 11.2504 21.1907 10.8306 21.1907 10.3129C21.1907 8.77152 20.4367 7.41596 19.2883 6.56152ZM21.9609 19.8203C22.0949 19.4202 22.1908 19.0129 22.1908 18.588C22.1907 16.6461 20.7579 15.1254 18.9277 15.1254C18.3857 15.1254 17.8497 15.2603 17.4407 15.47V13.1254H15.5657V15.4698C15.1567 15.2602 14.6204 15.1254 14.0786 15.1254C12.2485 15.1254 10.8157 16.6461 10.8157 18.5879C10.8157 19.0719 10.9337 19.5326 11.1112 19.9846L9.14062 21.0619C9.4715 21.5825 9.69712 22.1708 9.80131 22.803L12.0587 21.5691C12.9944 22.7449 14.421 23.9053 15.9246 25.2091C16.1013 25.362 16.2844 25.438 16.5032 25.438C16.7221 25.438 16.9766 25.362 17.1524 25.2091C18.5472 24.0039 20.0608 22.8028 21.037 21.5116L23.2106 22.7496C23.3243 22.1047 23.5622 21.5032 23.9116 20.9776L21.9609 19.8203Z" fill="white"/>
</g>
<defs>
<clipPath id="clip0_4049_7943">
<rect width="32" height="32" fill="white" transform="translate(0.5)"/>
</clipPath>
</defs>
</svg>
