<svg width="24" height="24" viewBox="0 0 24 24" fill="none" xmlns="http://www.w3.org/2000/svg">
<g clip-path="url(#clip0_165_597)">
<path d="M23.8248 11.5355C23.7709 11.4742 22.4812 10.0185 20.3925 8.54993C14.8306 4.63934 9.39245 4.48245 3.60746 8.54993C1.5188 10.0185 0.229039 11.4742 0.17518 11.5355C0.0622762 11.6638 0 11.8289 0 11.9999C0 12.1708 0.0622762 12.3359 0.17518 12.4643C0.229039 12.5255 1.5188 13.9813 3.60751 15.4498C9.16932 19.3604 14.6075 19.5173 20.3925 15.4498C22.4812 13.9813 23.7709 12.5255 23.8248 12.4643C23.9377 12.3359 24 12.1708 24 11.9999C24 11.8289 23.9377 11.6638 23.8248 11.5355ZM17.1069 11.9999C17.1069 14.8008 14.7971 17.0464 12 17.0464C9.19824 17.0464 6.89316 14.7961 6.89316 11.9999C6.89316 9.19901 9.20288 6.95341 12 6.95341C14.8017 6.95341 17.1069 9.2037 17.1069 11.9999ZM1.67555 11.9999C3.06362 10.6128 4.80043 9.29304 6.61735 8.37082C5.12401 10.5379 5.09509 13.4198 6.61735 15.6289C4.79134 14.7021 3.05532 13.3786 1.67555 11.9999ZM17.3826 15.6289C18.8759 13.4618 18.9048 10.5799 17.3826 8.37082C19.2086 9.29763 20.9446 10.6212 22.3244 11.9999C20.9393 13.3839 19.2031 14.7049 17.3826 15.6289Z" fill="#019867"/>
<path d="M12.7033 11.2969H13.1151L12.0001 12.4119L11.0899 11.5016C10.8156 11.2272 10.37 11.227 10.0955 11.5016L8.7013 12.8959C8.42671 13.1705 8.42671 13.6156 8.7013 13.8902C8.97585 14.1649 9.42107 14.1648 9.69566 13.8902L10.5927 12.9932L11.503 13.9034C11.7776 14.178 12.2227 14.178 12.4973 13.9034L14.1095 12.2912V12.4688C14.1095 12.8571 14.4243 13.1719 14.8126 13.1719C15.2009 13.1719 15.5158 12.8571 15.5158 12.4688V10.5938C15.5158 10.2054 15.2009 9.89062 14.8126 9.89062H12.7033C12.3149 9.89062 12.0001 10.2054 12.0001 10.5938C12.0001 10.9821 12.3149 11.2969 12.7033 11.2969ZM12.0001 4.21875C12.3884 4.21875 12.7033 3.90394 12.7033 3.51562V2.10938C12.7033 1.72106 12.3884 1.40625 12.0001 1.40625C11.6118 1.40625 11.297 1.72106 11.297 2.10938V3.51562C11.297 3.90394 11.6118 4.21875 12.0001 4.21875ZM16.5939 5.44964C16.9287 5.643 17.3593 5.53012 17.5543 5.1923L18.2575 3.97448C18.4517 3.6382 18.3365 3.20813 18.0001 3.01402C17.6638 2.81977 17.2338 2.93498 17.0397 3.27136L16.3365 4.48917C16.1423 4.82545 16.2576 5.25548 16.5939 5.44964ZM12.0001 19.7344C11.6118 19.7344 11.297 20.0492 11.297 20.4375V21.8906C11.297 22.2789 11.6118 22.5938 12.0001 22.5938C12.3884 22.5938 12.7033 22.2789 12.7033 21.8906V20.4375C12.7033 20.0492 12.3884 19.7344 12.0001 19.7344ZM17.5309 18.7671C17.3367 18.4308 16.9067 18.3155 16.5704 18.5098C16.2341 18.7039 16.1189 19.1339 16.3131 19.4702L17.0397 20.7287C17.2344 21.066 17.6648 21.1797 18.0001 20.986C18.3365 20.7919 18.4517 20.3619 18.2575 20.0256L17.5309 18.7671ZM6.44591 5.1923C6.64068 5.52966 7.07108 5.64328 7.40638 5.44964C7.74271 5.25548 7.85793 4.82545 7.66372 4.48917L6.9606 3.27136C6.76639 2.93498 6.33641 2.81981 6.00013 3.01402C5.6638 3.20817 5.54858 3.6382 5.74278 3.97448L6.44591 5.1923ZM7.42982 18.5098C7.09353 18.3155 6.66346 18.4308 6.46935 18.7671L5.74278 20.0256C5.54858 20.3619 5.6638 20.7919 6.00013 20.986C6.3351 21.1795 6.76564 21.0663 6.9606 20.7287L7.68716 19.4702C7.88136 19.134 7.76614 18.7039 7.42982 18.5098Z" fill="#019867"/>
</g>
<defs>
<clipPath id="clip0_165_597">
<rect width="24" height="24" fill="white"/>
</clipPath>
</defs>
</svg>
