<svg width="56" height="56" viewBox="0 0 56 56" fill="none" xmlns="http://www.w3.org/2000/svg">
<circle cx="28" cy="28" r="28" fill="white"/>
<path d="M19.834 19.8214C19.834 18.6884 19.834 18.1219 20.0702 17.8096C20.276 17.5375 20.5906 17.3692 20.9311 17.3489C21.322 17.3255 21.7934 17.6398 22.7361 18.2683L35.0042 26.447C35.7832 26.9663 36.1727 27.226 36.3084 27.5533C36.4271 27.8394 36.4271 28.161 36.3084 28.4471C36.1727 28.7744 35.7832 29.034 35.0042 29.5534L22.7361 37.7321C21.7934 38.3606 21.322 38.6749 20.9311 38.6515C20.5906 38.6312 20.276 38.4628 20.0702 38.1908C19.834 37.8785 19.834 37.312 19.834 36.179V19.8214Z" fill="#019867"/>
</svg>
